<?xml version="1.0" encoding="utf-8"?>
<!-- Generator: Adobe Illustrator 23.0.1, SVG Export Plug-In . SVG Version: 6.00 Build 0)  -->
<svg version="1.1" id="Layer_1" xmlns="http://www.w3.org/2000/svg" xmlns:xlink="http://www.w3.org/1999/xlink" x="0px" y="0px"
	 viewBox="0 0 1000 1000" style="enable-background:new 0 0 1000 1000;" xml:space="preserve">
<style type="text/css">
	.st0{opacity:8.000000e-02;fill:#FFFFFF;enable-background:new    ;}
	.st1{fill:#2A3588;}
</style>
<g>
	<path class="st0" d="M209.3,245h-12.4v12.4C196.8,251.2,201.5,245,209.3,245z"/>
	<path class="st1" d="M310.3,650.8V755h665.5c12.4,0,21.8-9.3,21.8-21.8v-59.1c0-12.4-9.3-21.8-21.8-21.8H811V257.4
		c0-6.2-4.7-12.4-12.4-12.4H423.8v404.3H310.3V650.8z"/>
	<path class="st1" d="M24.2,755h286.1V650.8h113.5V246.6H209.3c-6.2,0-12.4,4.7-12.4,12.4v393.4H24.2c-12.4,0-21.8,9.3-21.8,21.8
		v59.1C2.5,744.1,11.8,755,24.2,755z"/>
	<path class="st0" d="M24.2,755h286.1V650.8h113.5V246.6H209.3c-6.2,0-12.4,4.7-12.4,12.4v393.4H24.2c-12.4,0-21.8,9.3-21.8,21.8
		v59.1C2.5,744.1,11.8,755,24.2,755z"/>
</g>
</svg>
